<svg width="49" height="49" viewBox="0 0 49 49" fill="none" xmlns="http://www.w3.org/2000/svg">
<path d="M24.5 4.91C13.26 4.91 6 11.39 6 21.41C6 31.43 13.26 37.91 24.5 37.91C24.58 37.91 24.66 37.91 24.74 37.91C24.66 38.73 24.46 39.63 24.14 40.6C23.78 41.68 24.14 42.83 25.03 43.53C25.52 43.91 26.09 44.1 26.66 44.1C27.15 44.1 27.64 43.96 28.08 43.68C31.73 41.36 33.99 38.65 34.83 35.61C40.03 32.84 42.99 27.71 42.99 21.42C42.99 11.4 35.73 4.92 24.49 4.92L24.5 4.91ZM32.89 33.23C32.46 33.43 32.16 33.83 32.07 34.29C31.63 36.54 29.97 38.72 27.27 40.62C27.71 39.02 27.87 37.54 27.74 36.21C27.66 35.44 27.01 34.85 26.25 34.85C26.21 34.85 26.18 34.85 26.14 34.85C25.61 34.89 25.07 34.91 24.51 34.91C14.95 34.91 9.01 29.74 9.01 21.41C9.01 13.08 14.95 7.91 24.51 7.91C34.07 7.91 40.01 13.08 40.01 21.41C40.01 26.84 37.49 31.03 32.9 33.23H32.89Z" fill="#A53412"/>
<path d="M22.24 20.81L22.11 20.75C21.61 20.49 21.2 20.08 20.94 19.58L20.88 19.45C20.63 18.96 19.93 18.96 19.68 19.45L19.62 19.58C19.36 20.08 18.95 20.49 18.45 20.75L18.32 20.81C17.83 21.06 17.83 21.76 18.32 22.01L18.45 22.07C18.95 22.33 19.36 22.74 19.62 23.24L19.68 23.37C19.93 23.86 20.63 23.86 20.88 23.37L20.94 23.24C21.2 22.74 21.61 22.33 22.11 22.07L22.24 22.01C22.73 21.76 22.73 21.06 22.24 20.81Z" fill="#A53412"/>
<path d="M16.5 20.57L16.32 20.48C15.62 20.12 15.04 19.55 14.68 18.84L14.59 18.66C14.24 17.97 13.26 17.97 12.91 18.66L12.82 18.84C12.46 19.54 11.89 20.12 11.18 20.48L11 20.57C10.31 20.92 10.31 21.9 11 22.25L11.18 22.34C11.88 22.7 12.46 23.27 12.82 23.98L12.91 24.16C13.26 24.85 14.24 24.85 14.59 24.16L14.68 23.98C15.04 23.28 15.61 22.7 16.32 22.34L16.5 22.25C17.19 21.9 17.19 20.92 16.5 20.57Z" fill="#A53412"/>
<path d="M37.08 18.55L36.76 18.39C35.76 17.88 34.96 17.08 34.45 16.08L34.29 15.76C33.74 14.68 32.64 14.01 31.43 14.01C30.22 14.01 29.12 14.68 28.56 15.76L28.4 16.08C27.89 17.08 27.09 17.88 26.09 18.39L25.77 18.55C24.69 19.1 24.02 20.2 24.02 21.42C24.02 22.64 24.69 23.73 25.77 24.29L26.09 24.45C27.09 24.96 27.89 25.76 28.4 26.76L28.56 27.08C29.11 28.16 30.21 28.83 31.43 28.83C32.65 28.83 33.74 28.16 34.3 27.08L34.46 26.76C34.97 25.76 35.77 24.96 36.77 24.45L37.09 24.29C38.17 23.74 38.84 22.64 38.84 21.43C38.84 20.22 38.17 19.12 37.09 18.56L37.08 18.55ZM35.72 21.61L35.4 21.77C33.83 22.57 32.58 23.82 31.78 25.39L31.62 25.71C31.62 25.71 31.56 25.83 31.43 25.83C31.3 25.83 31.25 25.74 31.24 25.71L31.08 25.39C30.28 23.82 29.03 22.57 27.46 21.77L27.14 21.61C27.14 21.61 27.02 21.55 27.02 21.42C27.02 21.29 27.11 21.24 27.14 21.23L27.46 21.07C29.03 20.27 30.28 19.02 31.08 17.45L31.24 17.13C31.24 17.13 31.3 17.01 31.43 17.01C31.56 17.01 31.61 17.09 31.62 17.13L31.78 17.45C32.58 19.02 33.83 20.27 35.4 21.07L35.72 21.23C35.72 21.23 35.84 21.29 35.84 21.42C35.84 21.55 35.75 21.6 35.72 21.61Z" fill="#A53412"/>
</svg>
